<svg width="19" height="19" viewBox="0 0 19 19" fill="none" xmlns="http://www.w3.org/2000/svg">
<path fill-rule="evenodd" clip-rule="evenodd" d="M0.587524 1.18752C0.587524 0.856154 0.856154 0.587524 1.18752 0.587524H17.8125C18.1439 0.587524 18.4125 0.856154 18.4125 1.18752V17.8125C18.4125 18.1439 18.1439 18.4125 17.8125 18.4125H1.18752C0.856154 18.4125 0.587524 18.1439 0.587524 17.8125V1.18752ZM1.78752 15.6861V17.2125H17.2125V14.85H11.875C11.7159 14.85 11.5633 14.7868 11.4508 14.6743L7.12502 10.3486L1.78752 15.6861ZM10.3486 11.875L12.1236 13.65H17.2125V13.3111L13.0625 9.16105L10.3486 11.875ZM17.2125 11.614L13.4868 7.88826C13.2525 7.65395 12.8726 7.65395 12.6383 7.88826L9.50002 11.0265L7.54929 9.07576C7.31497 8.84145 6.93507 8.84145 6.70076 9.07576L1.78752 13.989V1.78752H17.2125V11.614Z" fill="#4A8EEE"/>
<path fill-rule="evenodd" clip-rule="evenodd" d="M5.93752 4.16252C5.28514 4.16252 4.75627 4.69139 4.75627 5.34377C4.75627 5.99616 5.28514 6.52502 5.93752 6.52502C6.58991 6.52502 7.11877 5.99616 7.11877 5.34377C7.11877 4.69139 6.58991 4.16252 5.93752 4.16252ZM3.55627 5.34377C3.55627 4.02865 4.6224 2.96252 5.93752 2.96252C7.25265 2.96252 8.31877 4.02865 8.31877 5.34377C8.31877 6.6589 7.25265 7.72502 5.93752 7.72502C4.6224 7.72502 3.55627 6.6589 3.55627 5.34377Z" fill="#4A8EEE"/>
</svg>
